<?xml version="1.0" encoding="UTF-8" standalone="no"?>
<!-- Created with Inkscape (http://www.inkscape.org/) -->

<svg
   version="1.1"
   id="svg1"
   width="1209.4532"
   height="264.57333"
   viewBox="0 0 1209.4532 264.57333"
   xmlns="http://www.w3.org/2000/svg"
   xmlns:svg="http://www.w3.org/2000/svg">
  <defs
     id="defs1" />
  <g
     id="g1">
    <path
       id="path1"
       d="m 2941.52,310.074 -359,-1.109 -0.03,827.405 356.82,0.32 3.53,-109.62 941.21,-0.36 c 73.58,-0.03 131.38,43.24 146.72,115.41 8.81,41.44 10.52,88.94 -0.38,129.63 -18.68,69.73 -74.14,115.04 -148.47,115.13 l -939.89,1.14 -1.71,-208.75 -357.19,-0.16 -1.5,497.01 1446.05,-0.64 c 164.1,-9.85 300.71,-101.4 345.86,-261.28 38.46,-136.22 36.87,-282.55 -2.05,-419.305 -35.78,-125.731 -139.86,-212.762 -264.99,-238.559 -55.23,-11.391 -106.42,-9.246 -165.1,-10.934 l 271.18,-214.918 280.84,-219.953 -486.72,-2.468 -199.66,184.32 -260.5,253.394 -604.86,1.293 -0.16,-436.996"
       style="fill:#ce1a35;fill-opacity:1;fill-rule:nonzero;stroke:none"
       transform="matrix(0.13333333,0,0,-0.13333333,0,264.57333)" />
    <path
       id="path2"
       d="m 322.676,1136.03 361.433,0.66 3.071,-114.1 969.75,0.44 c 67.32,0.03 114.86,56.19 123.6,116.38 8.73,60.17 11.66,119.77 -17.9,173.06 -17.18,30.95 -53.23,61.99 -93.78,62.02 l -983.01,0.87 -1.047,-196.15 -361.902,0.13 0.027,496.74 1451.312,-2.57 c 168.56,-0.3 303.15,-114.2 348.16,-268.76 29.99,-103.02 28.24,-282.84 6.84,-386.37 -36.14,-174.853 -184.7,-292.11 -364.96,-289.349 l -1078.954,-0.226 0.129,-419.551 -362.523,0.262 -0.246,826.514"
       style="fill:#ce1a35;fill-opacity:1;fill-rule:nonzero;stroke:none"
       transform="matrix(0.13333333,0,0,-0.13333333,0,264.57333)" />
    <path
       id="path3"
       d="m 7031.57,510.676 -0.32,624.344 356.12,0.16 1.98,-139.438 962.56,2.02 c 62.51,0.129 104.38,55.508 116.36,105.948 12.68,53.46 14.64,103.96 2.38,156.79 -13.4,57.75 -60.95,113.86 -126.9,113.92 l -955.03,0.86 -0.54,-194.25 -357.25,0.09 3.09,495.07 1378.85,-0.92 c 116.19,-6.59 219.65,-34.88 296.75,-123.25 54.42,-62.38 90.35,-141.96 99.34,-227.14 9.57,-90.67 8.67,-183.2 -0.47,-273.96 -7.67,-76.123 -32.58,-148.158 -81.32,-206.584 -60.94,-73.051 -150.16,-129.199 -251.28,-129.445 l -1086.99,-2.645 -1.02,-403.875 -354.86,0.746 -1.45,201.559"
       style="fill:#ce1a35;fill-opacity:1;fill-rule:nonzero;stroke:none"
       transform="matrix(0.13333333,0,0,-0.13333333,0,264.57333)" />
    <path
       id="path4"
       d="m 5199.94,590.289 1382.84,0.09 -0.1,-282.059 -1741.21,0.012 -0.25,828.358 h 1512.32 l -0.48,-291.26 -1152.35,-0.012 -0.77,-255.129"
       style="fill:#ce1a35;fill-opacity:1;fill-rule:nonzero;stroke:none"
       transform="matrix(0.13333333,0,0,-0.13333333,0,264.57333)" />
    <path
       id="path5"
       d="m 5200.53,1392.41 -0.51,-213.2 -359.01,0.06 0.79,496.79 1740.53,-0.05 0.63,-283.53 -1382.43,-0.07"
       style="fill:#ce1a35;fill-opacity:1;fill-rule:nonzero;stroke:none"
       transform="matrix(0.13333333,0,0,-0.13333333,0,264.57333)" />
  </g>
</svg>
